# xmcd
#
# Track frame offsets:
#   150
#   19432
#   36090
#   57905
#   76195
#   92605
#   105697
#   124380
#   139975
#   158015
#   174867
#   194637
#   210302
#   226005
#   244840
#   259105
#   275380
#   292120
#   306167
#   323737
#
# Disc length: 4591 seconds
#
# Revision: 2
# Processed by: cddbd v1.5.1PL0 Copyright (c) Steve Scherf et al.
# Submitted via: Media_Universe 3.0
#
DISCID=1811ed14
DTITLE=Various Artist - Forever Salsa - CD2
DYEAR=2001
DGENRE=Salsa
TTITLE0=Los Van Van - Tranquilo Mota
TTITLE1=Benny Moré - Mi Saoco
TTITLE2=Yumuri Y Sus Hermanos - A Guarachar
TTITLE3=Mayito Rivera - Guaguanco Pa'los Rumberos
TTITLE4=Son 14 - A Bayamo en Coche
TTITLE5=Orquestra Aragón - Pare Cochero
TTITLE6=Son De Oro - Juego De Amor
TTITLE7=Orquestra Sensación - Tiene Sabor
TTITLE8=Son Damas - Llego Son Damas
TTITLE9=Las Mas Famosas De Cuba - Guantanamera
TTITLE10=Gorge Reyes - Manteca
TTITLE11=Orquestra Sensación - Ay Mamá Inés
TTITLE12=NG La Banda- La Expresiva
TTITLE13=Mayohuacon - El Corazón De La Habana
TTITLE14=Grupo Sierra Maestra - El Reloj De Pastora
TTITLE15=Orquestra Anacaona - Gracias A La Música
TTITLE16=Son 14 - Pucho Marquez
TTITLE17=Benny Moré - Maracaibo Oriental
TTITLE18=Bamboleo - ¿ Te Gusto O Te Caigo Bien ?
TTITLE19=Tumuri Y Sus Hermanos - La Cuenta
EXTD=YEAR: 2001
EXTT0=
EXTT1=
EXTT2=
EXTT3=
EXTT4=
EXTT5=
EXTT6=
EXTT7=
EXTT8=
EXTT9=
EXTT10=
EXTT11=
EXTT12=
EXTT13=
EXTT14=
EXTT15=
EXTT16=
EXTT17=
EXTT18=
EXTT19=
PLAYORDER=
